<svg width="1029" height="3946" viewBox="0 0 1029 3946" fill="none" xmlns="http://www.w3.org/2000/svg">
<path d="M718 1433.5C638.5 1453.5 491.8 1414.5 437 1392.5C368.5 1365 29.5 1300.5 5.5 1649.5" stroke="#E2E1E8" stroke-width="4" stroke-linecap="round" stroke-linejoin="round"/>
<path d="M207.5 2857.5C138.167 2871.5 9.90048 2917.7 51.5005 2990.5C103.5 3081.5 727.5 3072 737 3224.5C744.6 3346.5 690.167 3401 662 3413" stroke="#E2E1E8" stroke-width="4" stroke-linecap="round" stroke-linejoin="round"/>
<path d="M216 798C200.5 873 266.001 974 456.001 910C632 850.716 770.5 790 906.5 880.5C1042.5 971 1053.5 1172.5 986.5 1289C928.642 1389.6 813.167 1421.67 786.5 1423.5" stroke="#E2E1E8" stroke-width="4" stroke-linecap="round" stroke-linejoin="round"/>
<path d="M150.151 2C118.856 74.7392 108.538 215.955 317.619 198.903C578.97 177.589 737.811 186.216 750.498 263.354C760.648 325.064 743.356 371.497 730.5 383" stroke="#E2E1E8" stroke-width="4" stroke-linecap="round" stroke-linejoin="round"/>
<path d="M701 425.5C687.5 446.5 619.5 502.5 430.5 525.5C257.968 546.496 222.167 689.5 221 744.5" stroke="#E2E1E8" stroke-width="4" stroke-linecap="round" stroke-linejoin="round"/>
<path d="M505.999 2406C470.499 2419.17 407.399 2455.8 438.999 2497C478.499 2548.5 668 2473.5 628.5 2604C596.9 2708.4 385.333 2795.5 268 2824.5" stroke="#E2E1E8" stroke-width="4" stroke-linecap="round" stroke-linejoin="round"/>
<path d="M603.5 3461C568.5 3481.67 509 3530.9 551 3562.5C603.5 3602 856.5 3612 807 3727C767.4 3819 501.5 3909.67 373.5 3943.5" stroke="#E2E1E8" stroke-width="4" stroke-linecap="round" stroke-linejoin="round"/>
<path d="M2.99952 1727.5C-2.33382 1803 125.999 2042.5 379 1993C608 1948.2 759.499 2043.5 759.499 2174C759.499 2280.95 626.499 2351.5 570.499 2366.5" stroke="#E2E1E8" stroke-width="4" stroke-linecap="round" stroke-linejoin="round"/>
</svg>
